    <svg preserveAspectRatio="xMidYMid meet" data-bbox="0 0 43.14 43.019" xmlns="http://www.w3.org/2000/svg" viewBox="0 0 43.14 43.019" height="36" width="36" data-type="color" role="img" aria-label="Homepage"><defs></defs>
      <g>
        <path fill="#ffffff" d="M21.71 6.687 21.57 0l-.14 6.687c-.05 2.381-3.382 2.883-4.131.623L15.194.96l1.838 6.431c.654 2.29-2.382 3.752-3.765 1.813L9.385 3.759l3.652 5.603c1.3 1.995-1.17 4.288-3.063 2.842l-5.315-4.06 5.14 4.278c1.831 1.524.146 4.443-2.089 3.619l-6.275-2.313L7.608 16.3c2.199.916 1.449 4.202-.93 4.073L0 20.014l6.658.639c2.37.227 2.622 3.588.312 4.167L.482 26.443l6.55-1.351c2.333-.482 3.564 2.656 1.527 3.89l-5.722 3.464 5.861-3.223c2.087-1.148 4.189 1.487 2.605 3.267l-4.446 4.996 4.651-4.806c1.656-1.712 4.44.187 3.452 2.353l-2.775 6.086 3.027-5.965c1.078-2.123 4.298-1.13 3.993 1.232l-.859 6.633 1.135-6.591c.404-2.347 3.774-2.347 4.178 0l1.135 6.591-.859-6.633c-.306-2.362 2.915-3.355 3.993-1.232l3.027 5.965-2.776-6.086c-.988-2.166 1.797-4.065 3.453-2.354l4.65 4.807-4.446-4.996c-1.583-1.78.519-4.415 2.605-3.267l5.861 3.223-5.721-3.465c-2.037-1.233-.806-4.37 1.526-3.89l6.55 1.352-6.487-1.623c-2.31-.579-2.059-3.94.312-4.167l6.658-.64-6.679.361c-2.378.129-3.128-3.157-.93-4.073l6.174-2.573-6.276 2.313c-2.234.824-3.92-2.095-2.089-3.619l5.141-4.278-5.315 4.06c-1.892 1.446-4.363-.847-3.063-2.842l3.652-5.603-3.883 5.446c-1.382 1.94-4.419.477-3.764-1.813L27.945.961 25.841 7.31c-.75 2.26-4.082 1.758-4.132-.623zm-.124 27.196c6.83 0 12.366-5.537 12.366-12.367 0-6.83-5.536-12.366-12.366-12.366S9.22 14.687 9.22 21.516c0 6.83 5.536 12.367 12.366 12.367z" clip-rule="evenodd" fill-rule="evenodd" data-color="1"></path>
      </g>
    </svg>